<svg height="180" version="1.1" width="265" xmlns="http://www.w3.org/2000/svg" style="overflow: hidden; position: relative; top: -0.4375px;"><desc style="-webkit-tap-highlight-color: rgba(0, 0, 0, 0);">Created with Raphaël 2.1.0</desc><defs style="-webkit-tap-highlight-color: rgba(0, 0, 0, 0);"></defs><path fill="#d3d3d3" stroke="#000000" d="M39,55L22,45L22,25L39,15L56,25L56,45Z" stroke-dasharray="1,1" style="-webkit-tap-highlight-color: rgba(0, 0, 0, 0);"></path><path fill="#d3d3d3" stroke="#000000" d="M73,55L56,45L56,25L73,15L90,25L90,45Z" stroke-dasharray="1,1" style="-webkit-tap-highlight-color: rgba(0, 0, 0, 0);"></path><path fill="#d3d3d3" stroke="#000000" d="M107,55L90,45L90,25L107,15L124,25L124,45Z" stroke-dasharray="1,1" style="-webkit-tap-highlight-color: rgba(0, 0, 0, 0);"></path><path fill="#d3d3d3" stroke="#000000" d="M141,55L124,45L124,25L141,15L158,25L158,45Z" stroke-dasharray="1,1" style="-webkit-tap-highlight-color: rgba(0, 0, 0, 0);"></path><path fill="#d3d3d3" stroke="#000000" d="M175,55L158,45L158,25L175,15L192,25L192,45Z" stroke-dasharray="1,1" style="-webkit-tap-highlight-color: rgba(0, 0, 0, 0);"></path><path fill="#d3d3d3" stroke="#000000" d="M56,85L39,75L39,55L56,45L73,55L73,75Z" stroke-dasharray="1,1" style="-webkit-tap-highlight-color: rgba(0, 0, 0, 0);"></path><path fill="#d3d3d3" stroke="#000000" d="M90,85L73,75L73,55L90,45L107,55L107,75Z" stroke-dasharray="1,1" style="-webkit-tap-highlight-color: rgba(0, 0, 0, 0);"></path><path fill="#d3d3d3" stroke="#000000" d="M124,85L107,75L107,55L124,45L141,55L141,75Z" stroke-dasharray="1,1" style="-webkit-tap-highlight-color: rgba(0, 0, 0, 0);"></path><path fill="#d3d3d3" stroke="#000000" d="M158,85L141,75L141,55L158,45L175,55L175,75Z" stroke-dasharray="1,1" style="-webkit-tap-highlight-color: rgba(0, 0, 0, 0);"></path><path fill="#d3d3d3" stroke="#000000" d="M192,85L175,75L175,55L192,45L209,55L209,75Z" stroke-dasharray="1,1" style="-webkit-tap-highlight-color: rgba(0, 0, 0, 0);"></path><path fill="#d3d3d3" stroke="#000000" d="M73,115L56,105L56,85L73,75L90,85L90,105Z" stroke-dasharray="1,1" style="-webkit-tap-highlight-color: rgba(0, 0, 0, 0);"></path><path fill="#d3d3d3" stroke="#000000" d="M107,115L90,105L90,85L107,75L124,85L124,105Z" stroke-dasharray="1,1" style="-webkit-tap-highlight-color: rgba(0, 0, 0, 0);"></path><path fill="#00ffff" stroke="#000000" d="M141,115L124,105L124,85L141,75L158,85L158,105Z" stroke-dasharray="0" style="-webkit-tap-highlight-color: rgba(0, 0, 0, 0);"></path><path fill="#ffff00" stroke="#000000" d="M175,115L158,105L158,85L175,75L192,85L192,105Z" stroke-dasharray="0" style="-webkit-tap-highlight-color: rgba(0, 0, 0, 0);"></path><path fill="#d3d3d3" stroke="#000000" d="M209,115L192,105L192,85L209,75L226,85L226,105Z" stroke-dasharray="1,1" style="-webkit-tap-highlight-color: rgba(0, 0, 0, 0);"></path><path fill="#d3d3d3" stroke="#000000" d="M90,145L73,135L73,115L90,105L107,115L107,135Z" stroke-dasharray="1,1" style="-webkit-tap-highlight-color: rgba(0, 0, 0, 0);"></path><path fill="#ffff00" stroke="#000000" d="M124,145L107,135L107,115L124,105L141,115L141,135Z" stroke-dasharray="0" style="-webkit-tap-highlight-color: rgba(0, 0, 0, 0);"></path><path fill="#ffff00" stroke="#000000" d="M158,145L141,135L141,115L158,105L175,115L175,135Z" stroke-dasharray="0" style="-webkit-tap-highlight-color: rgba(0, 0, 0, 0);"></path><path fill="#ffff00" stroke="#000000" d="M192,145L175,135L175,115L192,105L209,115L209,135Z" stroke-dasharray="0" style="-webkit-tap-highlight-color: rgba(0, 0, 0, 0);"></path><path fill="#d3d3d3" stroke="#000000" d="M226,145L209,135L209,115L226,105L243,115L243,135Z" stroke-dasharray="1,1" style="-webkit-tap-highlight-color: rgba(0, 0, 0, 0);"></path><path fill="#ffff00" stroke="#000000" d="M107,175L90,165L90,145L107,135L124,145L124,165Z" stroke-dasharray="0" style="-webkit-tap-highlight-color: rgba(0, 0, 0, 0);"></path><path fill="#ffff00" stroke="#000000" d="M141,175L124,165L124,145L141,135L158,145L158,165Z" stroke-dasharray="0" style="-webkit-tap-highlight-color: rgba(0, 0, 0, 0);"></path><path fill="#ffff00" stroke="#000000" d="M175,175L158,165L158,145L175,135L192,145L192,165Z" stroke-dasharray="0" style="-webkit-tap-highlight-color: rgba(0, 0, 0, 0);"></path><path fill="#ffff00" stroke="#000000" d="M209,175L192,165L192,145L209,135L226,145L226,165Z" stroke-dasharray="0" style="-webkit-tap-highlight-color: rgba(0, 0, 0, 0);"></path><path fill="#d3d3d3" stroke="#000000" d="M243,175L226,165L226,145L243,135L260,145L260,165Z" stroke-dasharray="1,1" style="-webkit-tap-highlight-color: rgba(0, 0, 0, 0);"></path></svg>
